<svg xmlns="http://www.w3.org/2000/svg" width="512" height="512" viewBox="0 0 512 512"><g transform="translate(6, 6) scale(2.5)"><defs id="defs437487"/>
  <linearGradient id="3d_gradient2-logo-a33cc6a2-412c-419a-a99c-72f901cf9faf" x1="30%" y1="120%" x2="-10%" y2="30%" spreadMethod="pad">
    <stop offset="0%" stop-color="#ffffff" stop-opacity="1" id="stop437464"/>
    <stop offset="100%" stop-color="#000000" stop-opacity="1" id="stop437466"/>
  </linearGradient>
  <linearGradient id="3d_gradient3-logo-a33cc6a2-412c-419a-a99c-72f901cf9faf" x1="30%" y1="120%" x2="-10%" y2="30%" spreadMethod="pad" gradientTransform="rotate(-30)">
    <stop offset="0%" stop-color="#ffffff" stop-opacity="1" id="stop437469"/>
    <stop offset="50%" stop-color="#cccccc" stop-opacity="1" id="stop437471"/>
    <stop offset="100%" stop-color="#000000" stop-opacity="1" id="stop437473"/>
  </linearGradient>
  <path id="icon" d="m 100.35419,40.009362 c -1.368872,-0.0058 -2.584555,-0.0042 -2.701515,0.0027 -0.116549,0.0073 -0.568089,0.03203 -1.003421,0.0548 -0.434943,0.02277 -1.207978,0.07603 -1.717393,0.118479 -0.509429,0.04245 -1.299463,0.120028 -1.755986,0.17251 -0.45617,0.05249 -1.029312,0.122339 -1.273573,0.155143 -0.243907,0.0328 -0.886462,0.129287 -1.427945,0.214192 -0.541074,0.08529 -1.496247,0.256644 -2.122621,0.380913 -0.625979,0.124268 -1.485835,0.306044 -1.910359,0.404068 -0.424524,0.09802 -1.075609,0.256644 -1.447242,0.352738 -0.371264,0.09609 -0.979126,0.261663 -1.350759,0.367405 -0.371264,0.105743 -0.926998,0.268993 -1.234979,0.362387 -0.307586,0.09339 -1.048192,0.334601 -1.645205,0.535674 -0.597034,0.201454 -1.413299,0.490132 -1.813876,0.641416 -0.400598,0.151283 -1.084078,0.419505 -1.51943,0.595874 -0.435332,0.175988 -1.15585,0.480873 -1.601614,0.67731 -0.445751,0.196436 -1.241157,0.56307 -1.767579,0.814342 -0.526025,0.251626 -1.324868,0.651064 -1.775283,0.888058 -0.449998,0.236577 -1.113439,0.595104 -1.474243,0.796156 -0.360845,0.201073 -0.951292,0.539915 -1.312165,0.75333 -0.360846,0.213032 -0.959067,0.577737 -1.329172,0.810455 -0.370105,0.232718 -1.03896,0.667272 -1.485835,0.965591 -0.446909,0.298708 -1.081787,0.733686 -1.410939,0.967118 -0.328812,0.233489 -0.953999,0.693517 -1.389352,1.022718 -0.434943,0.328812 -1.094906,0.842454 -1.466538,1.141204 -0.371264,0.298708 -0.972185,0.797753 -1.335349,1.108372 -0.362776,0.310674 -0.84058,0.725911 -1.061311,0.922347 -0.220751,0.196825 -0.757216,0.691587 -1.192499,1.099904 -0.434943,0.407928 -1.146965,1.104554 -1.582318,1.547611 -0.434943,0.443051 -1.008071,1.040071 -1.273572,1.327228 -0.265134,0.286749 -0.726328,0.798864 -1.024661,1.138081 -0.298326,0.33923 -0.725912,0.835513 -0.950529,1.102957 -0.224229,0.267452 -0.654153,0.794213 -0.954763,1.170496 -0.300638,0.376672 -0.777276,0.991482 -1.058604,1.366168 -0.281729,0.375124 -0.70356,0.950946 -0.937062,1.280167 -0.233877,0.328812 -0.685799,0.988775 -1.004185,1.466538 -0.318393,0.477396 -0.779567,1.189446 -1.024661,1.582318 -0.245066,0.392879 -0.656083,1.073666 -0.912699,1.513599 -0.257033,0.439962 -0.685798,1.204092 -0.953236,1.698097 -0.267452,0.493992 -0.708975,1.349996 -0.98107,1.901891 -0.271693,0.551881 -0.636786,1.316053 -0.811219,1.698097 -0.174058,0.382072 -0.454628,1.02119 -0.623667,1.419824 -0.168651,0.39905 -0.451929,1.093726 -0.629457,1.543724 -0.177139,0.45038 -0.434943,1.131139 -0.572337,1.513253 -0.137394,0.382071 -0.38979,1.119963 -0.560759,1.640207 -0.171351,0.519847 -0.390561,1.207978 -0.486662,1.529078 -0.09648,0.320712 -0.28713,0.992593 -0.423754,1.492776 -0.136617,0.50017 -0.33576,1.27975 -0.442662,1.732039 -0.106901,0.452699 -0.246225,1.067489 -0.309904,1.366585 -0.06407,0.299097 -0.193736,0.950529 -0.288677,1.447242 -0.09494,0.49708 -0.234259,1.294049 -0.309516,1.771812 -0.07565,0.477396 -0.188717,1.27628 -0.251625,1.775283 -0.06291,0.498622 -0.150125,1.271629 -0.193736,1.717394 -0.04361,0.44575 -0.104972,1.166261 -0.136236,1.601614 -0.03126,0.434943 -0.0768,1.233799 -0.101112,1.775283 -0.02779,0.618649 -0.03628,1.807698 -0.02355,3.203222 0.01312,1.42406 0.04245,2.53014 0.08144,3.08745 0.03357,0.4774 0.0876,1.17209 0.120027,1.54373 0.03241,0.37126 0.09455,0.99648 0.137776,1.38935 0.04322,0.39249 0.129676,1.08713 0.191425,1.54372 0.06214,0.45617 0.174439,1.20215 0.249696,1.65756 0.07526,0.4554 0.231169,1.30099 0.346178,1.87913 0.115391,0.57812 0.289449,1.39511 0.386702,1.81582 0.09764,0.42066 0.256255,1.06825 0.352356,1.43988 0.09648,0.37127 0.235807,0.89229 0.309904,1.15779 0.07372,0.26514 0.236578,0.82087 0.361235,1.23498 0.125039,0.41372 0.402139,1.27087 0.616719,1.9046 0.214192,0.6337 0.547252,1.56261 0.739863,2.06473 0.192966,0.5021 0.50287,1.27823 0.688887,1.7251 0.186018,0.44691 0.50364,1.17633 0.705852,1.62091 0.201843,0.44459 0.522166,1.12961 0.711682,1.52249 0.189494,0.39249 0.532196,1.06977 0.76145,1.50513 0.22924,0.43533 0.581215,1.08637 0.782274,1.44724 0.201073,0.36084 0.539915,0.95129 0.753329,1.31216 0.213033,0.36085 0.578126,0.95983 0.811635,1.33147 0.2331,0.37126 0.715153,1.10955 1.071376,1.6402 0.356215,0.53066 0.896526,1.30641 1.20062,1.72392 0.304115,0.41758 0.764505,1.03431 1.022718,1.37006 0.258573,0.33615 0.718623,0.91658 1.022717,1.29058 0.304115,0.37357 0.867929,1.04243 1.252749,1.48583 0.384772,0.44343 0.957123,1.08408 1.272046,1.42371 0.314922,0.33962 0.903467,0.95365 1.307515,1.3643 0.403686,0.41062 1.09914,1.08983 1.544904,1.50901 0.445751,0.41913 0.989539,0.92159 1.208325,1.1165 0.218822,0.19489 0.690047,0.60475 1.047428,0.91082 0.356987,0.30605 1.002658,0.83975 1.434887,1.18556 0.432631,0.34618 1.064017,0.83898 1.403651,1.09525 0.339619,0.25665 0.92318,0.68464 1.296756,0.95095 0.373964,0.26668 1.068668,0.74444 1.543724,1.06131 0.475466,0.31723 1.185975,0.77651 1.578431,1.02077 0.392879,0.2443 0.966007,0.5928 1.273572,0.77381 0.307975,0.18139 0.85481,0.49399 1.215683,0.69509 0.360846,0.20107 1.020774,0.55767 1.466538,0.79234 0.445751,0.23464 1.244628,0.63447 1.775283,0.88806 0.530656,0.25394 1.329519,0.62251 1.775284,0.81892 0.44575,0.19644 1.166261,0.50133 1.601614,0.67731 0.435331,0.17638 1.118783,0.4446 1.51943,0.59588 0.400598,0.15129 1.216863,0.43996 1.813876,0.64142 0.597034,0.20107 1.33764,0.44228 1.645205,0.53567 0.307974,0.0934 0.863694,0.25665 1.234979,0.36239 0.371653,0.10575 0.979474,0.27131 1.350759,0.3674 0.371653,0.0961 1.01654,0.25318 1.433359,0.34889 0.417195,0.0957 1.09449,0.24275 1.505132,0.32688 0.411016,0.0838 1.094489,0.21458 1.519013,0.29022 0.424525,0.0756 1.067072,0.18178 1.427945,0.23619 0.360846,0.054 0.908118,0.1316 1.215683,0.17213 0.307975,0.0405 0.863695,0.10845 1.23498,0.15128 0.371653,0.0425 1.101083,0.11231 1.62091,0.15514 0.520237,0.0428 1.284401,0.1 1.698097,0.12698 0.486273,0.0317 1.673803,0.049 3.357597,0.049 1.70157,0 2.8729,-0.0173 3.3769,-0.0498 0.42453,-0.0274 1.18868,-0.0845 1.6981,-0.12659 0.50943,-0.0425 1.30828,-0.1208 1.77528,-0.17406 0.46698,-0.0536 1.21374,-0.14858 1.6595,-0.21187 0.44575,-0.0629 1.21687,-0.18448 1.71316,-0.26977 0.4967,-0.0857 1.25199,-0.22538 1.6788,-0.31106 0.42685,-0.0853 1.11497,-0.2331 1.52867,-0.32766 0.4141,-0.0949 1.11725,-0.26667 1.56302,-0.38168 0.44575,-0.11501 1.20138,-0.32186 1.6788,-0.45965 0.47778,-0.13777 1.18944,-0.35312 1.58231,-0.47855 0.39288,-0.12543 0.99183,-0.32457 1.33147,-0.44228 0.33962,-0.11732 0.92158,-0.3265 1.29287,-0.46388 0.37165,-0.13779 0.98801,-0.37552 1.37005,-0.52835 0.38207,-0.15282 0.98142,-0.40021 1.33146,-0.54956 0.35004,-0.14974 0.932,-0.40678 1.29287,-0.57195 0.36085,-0.1648 0.99496,-0.46312 1.40865,-0.66303 0.41411,-0.19991 1.09144,-0.54262 1.50513,-0.76145 0.41411,-0.21882 1.0046,-0.5376 1.31217,-0.70821 0.30797,-0.17058 0.89847,-0.50982 1.31216,-0.75333 0.41411,-0.24391 1.03043,-0.61711 1.37006,-0.82934 0.33962,-0.21226 1.00842,-0.64681 1.48583,-0.96524 0.47779,-0.31878 1.17244,-0.79657 1.54373,-1.06207 0.37165,-0.26591 0.95323,-0.69198 1.29287,-0.94748 0.33962,-0.2551 0.99953,-0.77068 1.46654,-1.14544 0.46697,-0.37474 1.1269,-0.91971 1.46653,-1.21103 0.33962,-0.29138 0.95831,-0.8394 1.37429,-1.21839 0.41642,-0.3786 1.1512,-1.07443 1.63251,-1.54643 0.48163,-0.472 1.21068,-1.21568 1.62049,-1.65256 0.40948,-0.43726 0.90388,-0.97372 1.09914,-1.1925 0.1949,-0.21882 0.60475,-0.69004 0.91083,-1.04743 0.30604,-0.35699 0.83974,-1.00266 1.18555,-1.43489 0.34618,-0.43262 0.83899,-1.06401 1.09526,-1.40365 0.25664,-0.33962 0.68464,-0.92318 0.95094,-1.29675 0.26668,-0.37397 0.74445,-1.06867 1.06131,-1.54373 0.31724,-0.47546 0.77652,-1.18597 1.02078,-1.57843 0.24429,-0.39288 0.59279,-0.96601 0.7738,-1.27357 0.18139,-0.30798 0.49399,-0.85481 0.69509,-1.21568 0.20107,-0.36085 0.5596,-1.02425 0.79658,-1.47425 0.23735,-0.45038 0.63678,-1.24928 0.8884,-1.77528 0.25125,-0.52641 0.61788,-1.32181 0.81435,-1.76758 0.19644,-0.44575 0.5183,-1.20992 0.71549,-1.6981 0.19721,-0.4882 0.4747,-1.20027 0.61711,-1.58231 0.14241,-0.38207 0.41371,-1.15509 0.60321,-1.7174 0.1891,-0.56269 0.42066,-1.27475 0.51445,-1.58231 0.0934,-0.30798 0.25702,-0.8637 0.36315,-1.23498 0.10613,-0.37166 0.2883,-1.04896 0.40446,-1.50513 0.11617,-0.45656 0.29833,-1.22069 0.40485,-1.6981 0.10651,-0.47779 0.25586,-1.18716 0.33228,-1.5769 0.0764,-0.38941 0.19798,-1.05826 0.27054,-1.48584 0.0725,-0.42761 0.18409,-1.14197 0.24776,-1.58773 0.0637,-0.44575 0.1594,-1.1925 0.21266,-1.6595 0.0532,-0.46698 0.13198,-1.27476 0.17482,-1.79458 0.0428,-0.52024 0.1,-1.28441 0.12697,-1.6981 0.0317,-0.48627 0.049,-1.6738 0.049,-3.3576 0,-1.683798 -0.0174,-2.871299 -0.049,-3.3576 -0.027,-0.414106 -0.0841,-1.17827 -0.12697,-1.698097 -0.0428,-0.520237 -0.12157,-1.327575 -0.17482,-1.79458 -0.0532,-0.466976 -0.14898,-1.213739 -0.21266,-1.659503 -0.0636,-0.445751 -0.17521,-1.160084 -0.24776,-1.587732 -0.0726,-0.427613 -0.19413,-1.096433 -0.27054,-1.485835 -0.0764,-0.38979 -0.22577,-1.099487 -0.33228,-1.576903 -0.10652,-0.477784 -0.28868,-1.241921 -0.40485,-1.698097 -0.11616,-0.456169 -0.29833,-1.133846 -0.40446,-1.505131 -0.10613,-0.371653 -0.26976,-0.927415 -0.36315,-1.23498 -0.0934,-0.307974 -0.33461,-1.048191 -0.53568,-1.645205 -0.20145,-0.597034 -0.49013,-1.413299 -0.64141,-1.813876 -0.15129,-0.400598 -0.41951,-1.084494 -0.59589,-1.51943 -0.17598,-0.435332 -0.48086,-1.15585 -0.67731,-1.601614 -0.19643,-0.44575 -0.56307,-1.241157 -0.81434,-1.767578 -0.25162,-0.526026 -0.65106,-1.324869 -0.88806,-1.775283 -0.23657,-0.449999 -0.5951,-1.113439 -0.79615,-1.474243 -0.20146,-0.360846 -0.51406,-0.908118 -0.69544,-1.215683 -0.18139,-0.307975 -0.52989,-0.880701 -0.77381,-1.273573 -0.24429,-0.392879 -0.73445,-1.148145 -1.08949,-1.6788 -0.35467,-0.530655 -0.88375,-1.294813 -1.17556,-1.698097 -0.29138,-0.403298 -0.76992,-1.045901 -1.06284,-1.427945 -0.29292,-0.382072 -0.78151,-1.000367 -1.0856,-1.37429 -0.30412,-0.373582 -0.86759,-1.04243 -1.25234,-1.485834 -0.38477,-0.443432 -0.95594,-1.084078 -1.26934,-1.423711 -0.31337,-0.33962 -1.09254,-1.138497 -1.73169,-1.775283 -0.6391,-0.636787 -1.50048,-1.464595 -1.91459,-1.839351 -0.41372,-0.374742 -1.03042,-0.91964 -1.37006,-1.211449 -0.33962,-0.291378 -0.99953,-0.836346 -1.46653,-1.211032 -0.46698,-0.374742 -1.12691,-0.890348 -1.46654,-1.145438 -0.33962,-0.255485 -0.92124,-0.681939 -1.29287,-0.947475 -0.37127,-0.265903 -1.06596,-0.744097 -1.54373,-1.062837 -0.47739,-0.318782 -1.1462,-0.752566 -1.48583,-0.963648 -0.33962,-0.211492 -0.85176,-0.524866 -1.1385,-0.696203 -0.28675,-0.171739 -0.85099,-0.497851 -1.25427,-0.725148 -0.4033,-0.22731 -1.16127,-0.637557 -1.68422,-0.911936 -0.52293,-0.274399 -1.35652,-0.691587 -1.85247,-0.926998 -0.49592,-0.235806 -1.2751,-0.592404 -1.73127,-0.792686 -0.45617,-0.200295 -1.22034,-0.521395 -1.6981,-0.713556 -0.4774,-0.192195 -1.23304,-0.484732 -1.6788,-0.649523 -0.44575,-0.16518 -1.20451,-0.431854 -1.68651,-0.592793 -0.48164,-0.160932 -1.25469,-0.407157 -1.71739,-0.547252 -0.46273,-0.140094 -1.28398,-0.372812 -1.82547,-0.517147 -0.54107,-0.144724 -1.40094,-0.359305 -1.91036,-0.477014 -0.50942,-0.117709 -1.27357,-0.284048 -1.69851,-0.369723 -0.42452,-0.08568 -1.18014,-0.225381 -1.6788,-0.310675 -0.49862,-0.08529 -1.27128,-0.206862 -1.71698,-0.270152 -0.44575,-0.06368 -1.1925,-0.15862 -1.6595,-0.211491 -0.46698,-0.05287 -1.1528,-0.12311 -1.52443,-0.155914 -0.37126,-0.03319 -1.08331,-0.08761 -1.58232,-0.121568 -0.64759,-0.04399 -1.61896,-0.06445 -3.39619,-0.07179 z m 9.85582,22.754664 c 0.48165,-0.0035 0.86717,0.01544 1.1385,0.0548 0.22577,0.03319 0.56655,0.09609 0.75756,0.140476 0.19104,0.04399 0.54725,0.148195 0.79116,0.230788 0.24391,0.08298 0.66959,0.261274 0.94553,0.395968 0.27594,0.135076 0.68426,0.365865 0.90694,0.5129 0.22307,0.147424 0.53567,0.373194 0.69468,0.501711 0.15939,0.128898 0.48164,0.431472 0.71668,0.67229 0.23503,0.241207 0.55227,0.606682 0.70474,0.812399 0.15205,0.205314 0.36508,0.517918 0.47276,0.694676 0.10806,0.176369 0.27941,0.49438 0.3813,0.706615 0.10189,0.212262 0.24893,0.557282 0.32727,0.766448 0.078,0.209562 0.19296,0.582756 0.2551,0.829752 0.0621,0.246996 0.13932,0.62289 0.17213,0.835166 0.0324,0.212262 0.0699,0.637557 0.0826,0.945531 0.0143,0.33769 0.006,0.751038 -0.0228,1.042014 -0.0255,0.265133 -0.0903,0.699326 -0.14396,0.964064 -0.0532,0.265133 -0.1671,0.69662 -0.25317,0.959067 -0.0857,0.262821 -0.2825,0.732089 -0.43764,1.042777 -0.15476,0.311063 -0.38284,0.715916 -0.50596,0.899997 -0.1235,0.184088 -0.33769,0.479325 -0.47547,0.655312 -0.13777,0.17637 -0.44189,0.512518 -0.67538,0.746388 -0.23348,0.234259 -0.59124,0.550341 -0.79462,0.703145 -0.2034,0.152442 -0.516,0.368175 -0.69468,0.479325 -0.17869,0.11076 -0.52217,0.296007 -0.76416,0.411016 -0.24159,0.115009 -0.66689,0.284048 -0.94553,0.375124 -0.27826,0.09146 -0.68812,0.202225 -0.91117,0.246607 -0.22268,0.04399 -0.57697,0.100342 -0.78693,0.124269 -0.23078,0.02663 -0.66612,0.03589 -1.0999,0.02316 -0.3952,-0.01119 -0.88993,-0.04824 -1.09949,-0.08182 -0.20994,-0.03357 -0.5484,-0.103431 -0.75256,-0.155143 -0.20416,-0.0521 -0.53606,-0.149353 -0.73792,-0.216121 -0.20146,-0.06715 -0.60977,-0.240436 -0.90694,-0.385161 -0.29717,-0.144724 -0.71009,-0.377053 -0.91811,-0.515988 -0.20764,-0.139324 -0.50519,-0.357375 -0.66149,-0.484732 -0.15592,-0.127358 -0.42183,-0.362005 -0.59086,-0.521007 l -0.3072,-0.28906 -0.67152,0.551111 c -0.36934,0.302956 -2.91184,2.381945 -5.650008,4.620345 -2.738167,2.237984 -6.676191,5.457038 -8.751473,7.152914 l -3.772893,3.083978 0.494762,0.505181 c 0.272081,0.27787 0.625979,0.669979 0.786161,0.871815 0.160161,0.201455 0.386702,0.50557 0.50364,0.67538 0.116939,0.16981 0.302567,0.462347 0.412176,0.649905 0.10999,0.187565 0.276329,0.493603 0.369723,0.679627 0.09378,0.186018 0.240437,0.5075 0.326501,0.714389 0.08606,0.206862 0.235806,0.621738 0.332671,0.922001 0.09648,0.300256 0.226158,0.797753 0.287907,1.105665 0.06136,0.307585 0.134306,0.715916 0.161703,0.906938 0.03087,0.215351 0.04978,0.742922 0.04978,1.389352 0,0.64643 -0.01891,1.17404 -0.04978,1.38935 -0.0274,0.19104 -0.100342,0.59897 -0.161703,0.90694 -0.06175,0.30759 -0.191424,0.80546 -0.287907,1.10566 -0.09687,0.30026 -0.246607,0.71516 -0.332671,0.92201 -0.08606,0.20686 -0.232718,0.52834 -0.326501,0.71438 -0.09339,0.18602 -0.259733,0.49207 -0.369723,0.67963 -0.109602,0.18756 -0.295237,0.4801 -0.412176,0.64991 -0.116938,0.16981 -0.343867,0.47353 -0.504799,0.67538 -0.16055,0.20145 -0.438802,0.51868 -0.617879,0.70474 -0.178687,0.18601 -0.318393,0.34386 -0.309515,0.35081 0.0085,0.007 4.235177,3.46449 9.392841,7.68322 l 9.377573,7.67003 0.0587,-0.0899 c 0.032,-0.0494 0.18834,-0.26359 0.34734,-0.47585 0.15901,-0.21265 0.47161,-0.56887 0.69467,-0.79192 0.22307,-0.22306 0.60553,-0.55497 0.84947,-0.73716 0.2443,-0.18216 0.57504,-0.41024 0.73556,-0.50672 0.16016,-0.0965 0.4469,-0.25317 0.63679,-0.34812 0.18987,-0.0949 0.50286,-0.23464 0.69585,-0.31028 0.19336,-0.076 0.50596,-0.18139 0.69468,-0.23426 0.1891,-0.0532 0.5183,-0.13122 0.73098,-0.17367 0.21303,-0.0425 0.61247,-0.098 0.88764,-0.12312 0.28829,-0.0266 0.72133,-0.0363 1.02153,-0.0228 0.28675,0.0127 0.72092,0.0575 0.96483,0.0996 0.24391,0.0421 0.63061,0.12929 0.8587,0.19412 0.22809,0.0644 0.57543,0.18023 0.77186,0.25742 0.19644,0.0772 0.51213,0.21805 0.70162,0.31298 0.18949,0.0946 0.48318,0.2582 0.6526,0.36317 0.16943,0.10497 0.46583,0.3099 0.65879,0.45463 0.19297,0.1451 0.51251,0.41603 0.70974,0.60205 0.1976,0.18602 0.49862,0.5048 0.66882,0.70897 0.17019,0.20378 0.42877,0.54957 0.57427,0.76798 0.14588,0.21882 0.36007,0.58353 0.47624,0.81045 0.11616,0.22731 0.2825,0.59241 0.3701,0.81199 0.0872,0.2196 0.20956,0.57889 0.27093,0.79851 0.0618,0.2196 0.15205,0.62173 0.20068,0.89382 0.0756,0.42337 0.088,0.62444 0.0876,1.40129 -3.9e-4,0.68619 -0.017,1.00072 -0.068,1.29287 -0.0366,0.21226 -0.11037,0.55844 -0.16363,0.76916 -0.0529,0.21071 -0.1397,0.51213 -0.19296,0.66997 -0.0529,0.15785 -0.17908,0.47277 -0.28019,0.69933 -0.10111,0.22654 -0.29447,0.59819 -0.42993,0.82551 -0.13546,0.22731 -0.38593,0.60013 -0.55651,0.82823 -0.1702,0.22808 -0.51907,0.62366 -0.77457,0.87952 -0.25548,0.25548 -0.60398,0.57041 -0.77415,0.69933 -0.1702,0.1289 -0.44807,0.32495 -0.61749,0.4361 -0.16943,0.11076 -0.52718,0.3099 -0.79539,0.44266 -0.26822,0.13276 -0.72827,0.3211 -1.02272,0.41873 -0.29447,0.0976 -0.70897,0.2115 -0.92124,0.25318 -0.21226,0.0421 -0.5569,0.0973 -0.7661,0.1235 -0.24738,0.0305 -0.63832,0.0398 -1.1192,0.0255 -0.40638,-0.0119 -0.90388,-0.0498 -1.10566,-0.0838 -0.20146,-0.0344 -0.54031,-0.10574 -0.75257,-0.15862 -0.21226,-0.0532 -0.51599,-0.14202 -0.67538,-0.19721 -0.159,-0.0552 -0.4936,-0.19181 -0.7425,-0.30334 -0.24931,-0.11154 -0.63138,-0.31183 -0.84905,-0.44498 -0.21805,-0.13314 -0.56963,-0.37358 -0.78192,-0.53451 -0.21188,-0.16093 -0.58585,-0.49245 -0.83017,-0.73632 -0.24429,-0.2443 -0.56925,-0.61055 -0.72168,-0.81393 -0.15282,-0.20339 -0.36355,-0.50905 -0.46891,-0.67847 -0.10497,-0.16981 -0.2798,-0.48511 -0.38824,-0.7012 -0.10845,-0.21612 -0.24892,-0.52333 -0.31222,-0.68233 -0.0633,-0.159 -0.1671,-0.46504 -0.23078,-0.68001 -0.0641,-0.21458 -0.14936,-0.55729 -0.18989,-0.76186 -0.0409,-0.20416 -0.0953,-0.57967 -0.12156,-0.83441 -0.0293,-0.28867 -0.0386,-0.69585 -0.0239,-1.0806 0.0127,-0.33962 0.0583,-0.82587 0.10111,-1.08061 0.0428,-0.25471 0.11385,-0.59202 0.15785,-0.74986 l 0.0799,-0.28636 -0.0888,-0.0861 c -0.0486,-0.0471 -2.11179,-1.74093 -4.584872,-3.76401 -2.472666,-2.02308 -6.840212,-5.59642 -9.705195,-7.94074 -2.864775,-2.34495 -5.226659,-4.2626 -5.248663,-4.26183 -0.022,3.9e-4 -0.175599,0.0818 -0.341549,0.18061 -0.165951,0.0992 -0.439573,0.2497 -0.608612,0.33461 -0.169039,0.0849 -0.519466,0.24159 -0.77922,0.34849 -0.259344,0.1069 -0.697383,0.2636 -0.973296,0.3485 -0.275941,0.0849 -0.753329,0.20454 -1.061311,0.26552 -0.307585,0.0614 -0.733269,0.13392 -0.945531,0.16093 -0.22847,0.0293 -0.77922,0.049 -1.350759,0.0475 -0.791922,-0.001 -1.065197,-0.017 -1.524427,-0.0868 -0.307586,-0.0467 -0.769572,-0.13546 -1.026188,-0.19721 -0.256645,-0.0621 -0.660713,-0.17522 -0.898054,-0.25201 -0.237347,-0.0768 -0.598193,-0.2088 -0.802334,-0.2937 -0.204155,-0.0849 -0.540303,-0.23966 -0.747568,-0.34348 -0.206862,-0.10381 -0.538762,-0.28713 -0.737503,-0.40716 -0.198755,-0.12041 -0.500551,-0.31491 -0.670361,-0.43262 -0.16981,-0.11771 -0.44768,-0.32766 -0.61749,-0.46621 -0.169809,-0.13854 -0.456558,-0.38632 -0.637175,-0.55034 -0.180617,-0.16402 -0.484343,-0.47469 -0.675379,-0.69043 -0.190647,-0.21535 -0.486662,-0.57735 -0.657242,-0.80427 -0.17058,-0.22655 -0.412558,-0.57697 -0.537604,-0.77846 -0.124657,-0.20145 -0.335371,-0.57465 -0.467747,-0.82933 -0.132375,-0.25472 -0.336148,-0.70627 -0.452698,-1.00343 -0.116939,-0.29716 -0.264752,-0.72285 -0.329201,-0.94553 -0.06407,-0.22307 -0.144724,-0.5264 -0.178687,-0.67422 -0.03396,-0.1482 -0.09494,-0.47315 -0.135465,-0.72209 -0.04052,-0.24893 -0.09455,-0.75062 -0.119639,-1.11531 -0.0355,-0.50981 -0.0355,-0.81698 -7.63e-4,-1.33188 0.02509,-0.367796 0.07912,-0.873762 0.120027,-1.124617 0.04091,-0.250855 0.101883,-0.577356 0.135847,-0.725564 0.03396,-0.147813 0.11462,-0.45154 0.178687,-0.674221 0.06445,-0.223069 0.212262,-0.648364 0.329201,-0.945531 0.116549,-0.297167 0.320322,-0.748678 0.452698,-1.003421 0.132376,-0.254714 0.34309,-0.627908 0.467747,-0.829335 0.125039,-0.201455 0.367024,-0.551881 0.537604,-0.778456 0.17058,-0.226929 0.466588,-0.588934 0.657242,-0.804278 0.191036,-0.215733 0.494762,-0.526407 0.675379,-0.690428 0.180617,-0.164021 0.467366,-0.411787 0.637175,-0.55034 0.16981,-0.138547 0.44768,-0.348498 0.61749,-0.466207 0.16981,-0.117709 0.471606,-0.312215 0.670361,-0.432631 0.198754,-0.120028 0.532196,-0.304115 0.740974,-0.408698 0.208791,-0.104972 0.532196,-0.253944 0.71897,-0.331512 0.186788,-0.07757 0.536833,-0.207633 0.777623,-0.288678 0.240819,-0.08143 0.700854,-0.208792 1.022718,-0.282889 0.321482,-0.07449 0.793102,-0.162862 1.047775,-0.196055 0.254714,-0.03357 0.758327,-0.07101 1.1192,-0.08375 0.382461,-0.01312 0.881464,-0.0039 1.196387,0.02238 0.297166,0.0247 0.748678,0.08028 1.00342,0.123109 0.254715,0.04284 0.663031,0.128517 0.906938,0.189877 0.244296,0.06136 0.669591,0.189495 0.945532,0.28443 0.27594,0.09494 0.701617,0.261663 0.945531,0.370494 0.244296,0.10922 0.552652,0.258962 0.685416,0.33306 0.139324,0.07796 0.261663,0.122727 0.289449,0.106131 0.02624,-0.01583 1.089838,-0.881881 2.363411,-1.923895 1.273573,-1.04243 5.007456,-4.09899 8.297519,-6.792387 3.290062,-2.693396 6.607122,-5.408796 7.371562,-6.03406 0.76416,-0.625209 1.39629,-1.142731 1.40476,-1.149672 0.008,-0.0073 -0.0548,-0.16518 -0.14086,-0.351586 -0.0861,-0.186018 -0.21034,-0.492063 -0.27633,-0.68001 -0.066,-0.187947 -0.16209,-0.50904 -0.21381,-0.713972 -0.0517,-0.204544 -0.12465,-0.537215 -0.16248,-0.738683 -0.0544,-0.289449 -0.0691,-0.569637 -0.0695,-1.331463 -3.9e-4,-0.834402 0.0112,-1.027368 0.0853,-1.427945 0.0475,-0.254714 0.1289,-0.623278 0.18178,-0.818923 0.0529,-0.195666 0.15861,-0.525637 0.23541,-0.733269 0.0764,-0.207633 0.23503,-0.571949 0.35197,-0.809692 0.11694,-0.237736 0.32958,-0.611312 0.47238,-0.829752 0.14279,-0.218822 0.36432,-0.527955 0.49206,-0.686957 0.12775,-0.159391 0.35043,-0.416417 0.49476,-0.571178 0.14396,-0.155143 0.42916,-0.421436 0.63293,-0.592016 0.20416,-0.170969 0.55304,-0.432631 0.77533,-0.581597 0.22229,-0.148972 0.64798,-0.390179 0.94553,-0.535673 0.29755,-0.145495 0.77575,-0.341161 1.06208,-0.434943 0.28675,-0.09339 0.71203,-0.207633 0.94553,-0.253174 0.23349,-0.04592 0.5376,-0.09764 0.67538,-0.115391 0.13816,-0.01776 0.57851,-0.03435 0.97913,-0.03705 z m -0.0722,2.353416 c -0.33961,0.0019 -0.74756,0.02548 -0.90693,0.05249 -0.15901,0.02701 -0.43225,0.08606 -0.60669,0.131216 -0.17482,0.04515 -0.44883,0.134306 -0.609,0.197984 -0.16016,0.06368 -0.40792,0.174829 -0.55072,0.246608 -0.14279,0.07217 -0.41603,0.235029 -0.60707,0.362004 -0.19104,0.126587 -0.46891,0.336531 -0.61749,0.466207 -0.14858,0.129675 -0.38825,0.370493 -0.53258,0.535673 -0.14473,0.164791 -0.3678,0.455399 -0.49593,0.645276 -0.12812,0.190265 -0.30758,0.493991 -0.39866,0.675379 -0.0911,0.181388 -0.22076,0.486273 -0.28829,0.677309 -0.0675,0.191036 -0.16518,0.521007 -0.21689,0.733269 -0.0517,0.212262 -0.11463,0.614401 -0.13971,0.893819 -0.0359,0.394809 -0.0359,0.618649 3.8e-4,1.005365 0.0259,0.273622 0.0884,0.670361 0.13971,0.881464 0.0513,0.211103 0.13971,0.514059 0.19644,0.673449 0.0567,0.159003 0.20724,0.491292 0.33383,0.73792 0.12659,0.246226 0.35197,0.61093 0.50055,0.810455 0.14859,0.199144 0.37744,0.471996 0.50866,0.606683 0.13083,0.134687 0.35969,0.345019 0.50827,0.467365 0.14858,0.122339 0.42607,0.324571 0.6171,0.448839 0.19066,0.124269 0.53182,0.308357 0.75798,0.409476 0.22654,0.101113 0.59742,0.235807 0.82476,0.299485 0.22692,0.06407 0.61517,0.144336 0.86258,0.17907 0.32688,0.04592 0.60244,0.0575 1.00918,0.04245 0.34194,-0.01274 0.70856,-0.0521 0.94206,-0.101113 0.21072,-0.04438 0.54069,-0.134687 0.73327,-0.200684 0.19297,-0.06638 0.52448,-0.207243 0.73674,-0.313374 0.21226,-0.106131 0.54223,-0.299486 0.73327,-0.429154 0.19104,-0.130058 0.5102,-0.392491 0.70932,-0.583916 0.19876,-0.191035 0.47007,-0.486273 0.60282,-0.656082 0.13238,-0.16981 0.31531,-0.430314 0.40639,-0.578897 0.0915,-0.148583 0.24044,-0.426843 0.33151,-0.61826 0.0911,-0.191425 0.21767,-0.50827 0.28173,-0.703908 0.0641,-0.196054 0.15592,-0.551493 0.20416,-0.790395 0.0714,-0.353898 0.0876,-0.559989 0.0876,-1.109969 0,-0.49245 -0.0197,-0.779983 -0.0718,-1.06131 -0.0393,-0.212262 -0.13816,-0.590086 -0.21959,-0.839817 -0.0814,-0.249696 -0.23542,-0.628297 -0.34194,-0.841343 -0.1069,-0.213422 -0.30295,-0.547252 -0.4361,-0.742154 -0.13314,-0.195284 -0.42838,-0.547634 -0.65608,-0.783038 -0.2277,-0.235806 -0.55419,-0.531044 -0.72557,-0.656471 -0.17135,-0.125428 -0.46504,-0.316075 -0.65222,-0.423365 -0.18756,-0.107291 -0.50364,-0.258963 -0.70238,-0.336531 -0.19875,-0.07757 -0.49167,-0.176758 -0.65106,-0.220369 -0.15901,-0.04361 -0.44575,-0.104972 -0.63679,-0.136235 -0.2138,-0.03473 -0.58507,-0.05519 -0.96483,-0.05287 z M 77.605103,91.823736 c -0.361616,0.0023 -0.830932,0.02702 -1.043194,0.0548 -0.212262,0.02779 -0.56809,0.08838 -0.791159,0.134688 -0.22307,0.04631 -0.645275,0.162861 -0.938937,0.258962 -0.293696,0.09571 -0.788452,0.300638 -1.099904,0.454628 -0.311445,0.154373 -0.774569,0.419124 -1.029311,0.588545 -0.254715,0.169421 -0.631768,0.44961 -0.837873,0.623279 -0.206474,0.17328 -0.540304,0.492451 -0.742501,0.709322 -0.201844,0.21651 -0.490903,0.55883 -0.642187,0.760687 -0.150902,0.201454 -0.39635,0.571948 -0.545322,0.823157 -0.148972,0.250856 -0.352738,0.641417 -0.453469,0.868345 -0.100342,0.226541 -0.238507,0.575808 -0.306426,0.776513 -0.06831,0.200296 -0.165562,0.530267 -0.216892,0.733269 -0.05094,0.202614 -0.12118,0.533356 -0.155914,0.735213 -0.03859,0.223451 -0.07101,0.694256 -0.08336,1.206796 -0.01274,0.53606 -0.0031,0.97601 0.02586,1.21569 0.02548,0.20647 0.08876,0.59086 0.141254,0.85404 0.05249,0.2632 0.173669,0.71474 0.269381,1.00342 0.09571,0.28868 0.302186,0.7854 0.459258,1.10379 0.157073,0.3184 0.401369,0.75257 0.542622,0.96483 0.141254,0.21226 0.383231,0.54223 0.537215,0.73327 0.154372,0.19104 0.460799,0.52487 0.681168,0.74174 0.220751,0.21689 0.522548,0.49168 0.671132,0.61093 0.148583,0.11887 0.45231,0.33808 0.675379,0.48704 0.22307,0.14858 0.658013,0.39597 0.967118,0.54957 0.309134,0.1536 0.804695,0.36007 1.100668,0.45848 0.296396,0.0984 0.737919,0.22191 0.981833,0.27363 0.243526,0.0521 0.60823,0.11694 0.809692,0.14395 0.201455,0.027 0.69662,0.0486 1.099904,0.0478 0.403298,-6.9e-4 0.881047,-0.022 1.06131,-0.0475 0.180617,-0.0251 0.466977,-0.0726 0.636787,-0.10497 0.169809,-0.0324 0.49978,-0.11231 0.733269,-0.17676 0.233488,-0.0648 0.598193,-0.18679 0.810455,-0.27131 0.212262,-0.0841 0.594334,-0.25934 0.849048,-0.3894 0.254715,-0.12968 0.636787,-0.35274 0.849049,-0.49553 0.212262,-0.1428 0.507499,-0.35661 0.656083,-0.47548 0.148583,-0.11848 0.449998,-0.39326 0.66959,-0.61015 0.219592,-0.21728 0.526026,-0.55111 0.681168,-0.74215 0.155143,-0.19104 0.397509,-0.52101 0.538374,-0.73327 0.141254,-0.21226 0.377054,-0.62907 0.524478,-0.92624 0.147424,-0.29716 0.33036,-0.71397 0.406387,-0.92623 0.07603,-0.21226 0.188717,-0.58044 0.249696,-0.81781 0.06136,-0.23735 0.147042,-0.67152 0.189877,-0.96483 0.05673,-0.38632 0.07835,-0.73174 0.07835,-1.25469 3.86e-4,-0.42569 -0.02393,-0.90847 -0.05866,-1.177094 -0.03242,-0.250467 -0.104202,-0.646435 -0.159391,-0.879937 -0.05519,-0.233488 -0.178688,-0.650294 -0.2744,-0.926235 -0.09532,-0.275941 -0.257033,-0.675379 -0.358527,-0.887641 -0.105507,-0.213095 -0.298472,-0.569179 -0.432437,-0.792686 -0.13466,-0.222119 -0.374826,-0.578203 -0.533779,-0.789909 -0.158954,-0.211707 -0.515732,-0.612215 -0.791298,-0.889863 -0.27626,-0.276954 -0.675379,-0.635121 -0.88778,-0.795462 -0.212262,-0.160162 -0.533355,-0.383613 -0.713973,-0.496692 -0.180228,-0.112691 -0.568859,-0.322642 -0.86293,-0.466588 -0.294467,-0.143565 -0.772279,-0.338849 -1.061311,-0.433402 -0.289448,-0.09455 -0.692746,-0.208014 -0.895763,-0.252015 -0.203002,-0.04361 -0.584685,-0.106131 -0.847868,-0.138546 -0.280571,-0.03512 -0.750275,-0.0575 -1.13579,-0.05519 z M 111.48444,122.7128 c -0.33962,-0.007 -0.67808,-0.006 -0.75257,0.004 -0.0745,0.009 -0.2825,0.0433 -0.46311,0.0753 -0.18062,0.0316 -0.50171,0.11037 -0.71398,0.17444 -0.21226,0.0644 -0.6117,0.2277 -0.88764,0.36355 -0.31646,0.15553 -0.65222,0.36007 -0.90923,0.55381 -0.22422,0.16904 -0.54686,0.45424 -0.71702,0.63408 -0.1702,0.17985 -0.3925,0.43765 -0.494,0.57272 -0.10189,0.13508 -0.2798,0.40678 -0.39596,0.60398 -0.11617,0.19761 -0.27787,0.5187 -0.35892,0.71398 -0.0814,0.19567 -0.19258,0.51174 -0.24661,0.70279 -0.0544,0.19104 -0.12504,0.50017 -0.15708,0.68657 -0.032,0.1868 -0.0695,0.52565 -0.083,0.75257 -0.0143,0.24005 -0.006,0.59125 0.0208,0.83787 0.0251,0.23349 0.078,0.5735 0.11771,0.75562 0.0394,0.18216 0.11771,0.46891 0.17367,0.63679 0.056,0.16826 0.19528,0.49669 0.3099,0.73021 0.11424,0.23349 0.29987,0.55767 0.41256,0.7205 0.11231,0.16325 0.32611,0.4388 0.4747,0.61247 0.14858,0.17406 0.42645,0.44768 0.61749,0.60823 0.19103,0.16055 0.47778,0.37705 0.63678,0.48126 0.15939,0.1042 0.44575,0.26436 0.63679,0.35582 0.19104,0.0915 0.49592,0.21844 0.6777,0.28251 0.18139,0.0636 0.49939,0.15244 0.70585,0.19721 0.20686,0.0448 0.58507,0.0984 0.84058,0.11925 0.29562,0.0243 0.6144,0.0247 0.87605,0.002 0.22654,-0.0201 0.55072,-0.0645 0.7205,-0.0992 0.16981,-0.0344 0.4882,-0.12234 0.70744,-0.19528 0.21883,-0.0726 0.58739,-0.22886 0.81893,-0.34734 0.23117,-0.1181 0.57272,-0.32225 0.75909,-0.45347 0.1864,-0.13121 0.5129,-0.41217 0.72556,-0.62444 0.21303,-0.21226 0.49283,-0.53374 0.62174,-0.71397 0.12929,-0.18061 0.31453,-0.46697 0.41179,-0.63678 0.0973,-0.16981 0.2466,-0.48281 0.33229,-0.69544 0.0853,-0.21304 0.19875,-0.55189 0.25239,-0.75299 0.0537,-0.20145 0.1235,-0.53991 0.15553,-0.7518 0.032,-0.21187 0.0579,-0.5677 0.0575,-0.79074 0,-0.22307 -0.0247,-0.58777 -0.0544,-0.81122 -0.0297,-0.22346 -0.0915,-0.55343 -0.1374,-0.73327 -0.0459,-0.17984 -0.14086,-0.47546 -0.21072,-0.65647 -0.0699,-0.181 -0.18794,-0.44999 -0.26281,-0.59819 -0.0749,-0.14782 -0.23928,-0.4253 -0.36548,-0.61633 -0.12658,-0.19104 -0.35042,-0.48589 -0.49747,-0.65493 -0.14703,-0.16943 -0.40561,-0.428 -0.57503,-0.57503 -0.16904,-0.14705 -0.46389,-0.37089 -0.65493,-0.49709 -0.19103,-0.12619 -0.50518,-0.30527 -0.69814,-0.39789 -0.19297,-0.0926 -0.50557,-0.22037 -0.69468,-0.28327 -0.18911,-0.0633 -0.51754,-0.15168 -0.7298,-0.19683 -0.2744,-0.0583 -0.56423,-0.0857 -1.00342,-0.0953 z" style="fill:#4393cd;stroke-width:0.69412071"/></g></svg>